# xmcd
# 
# Track frame offsets:
#     150
#     16484
#     37769
#     63936
#     81496
#     105628
#     143637
#     164280
# 
# Disc length: 2501
# 
# Revision: 2
# Processed by: cddbd v1.5.2PL0 Copyright (c) Steve Scherf et al.
# Submitted via: fre:ac v1.0.17
# 
DISCID=5d09c308
DTITLE=MacArthur - II
DYEAR=1982
DGENRE=Progressive Rock
TTITLE0=All These Tears
TTITLE1=Let Them Know
TTITLE2=IV Mars
TTITLE3=Asteroids
TTITLE4=VI Saturn
TTITLE5=The Steel Door And Hope
TTITLE6=III Earth
TTITLE7=Spacewok
EXTD=
EXTT0=
EXTT1=
EXTT2=
EXTT3=
EXTT4=
EXTT5=
EXTT6=
EXTT7=
PLAYORDER=
